<svg width="99" height="101" viewBox="0 0 99 101" fill="none" xmlns="http://www.w3.org/2000/svg">
<rect width="99" height="101" fill="#454545"/>
<rect width="1467" height="2357" transform="translate(-1166 -676)" fill="black"/>
<rect x="-30.5" y="-5.5" width="160" height="112" rx="15.5" fill="white"/>
<path d="M49.7842 20.9205C52.1193 17.1019 57.5621 15.9824 61.4067 18.1019C64.2746 19.6417 66.117 22.8807 65.8683 26.1373C65.7485 30.04 62.5654 33.6771 58.632 34.0886C56.1814 34.2612 53.722 34.1063 51.2714 34.155C51.2226 36.5001 51.3868 38.8541 51.1693 41.1904C50.8275 44.7214 47.893 47.7789 44.3991 48.363C41.984 48.7922 39.3381 48.3762 37.3581 46.8807C34.7832 45.04 33.3671 41.717 33.9131 38.6019C34.3393 35.8099 36.2127 33.2745 38.8143 32.1196C40.8875 31.1373 43.2493 31.4559 45.4735 31.4293C45.4735 32.332 45.4735 33.2391 45.4735 34.1417C43.2626 34.1771 40.7721 33.8453 38.9031 35.3099C35.9419 37.4072 35.9153 42.3453 38.8542 44.4736C41.9974 47.0798 47.6843 45.4116 48.3192 41.2037C48.5678 37.5267 48.3458 33.832 48.4213 30.1462C48.4967 27.0532 47.9196 23.6329 49.7842 20.9205ZM51.8663 22.9559C50.7387 25.6196 51.4623 28.6063 51.2758 31.4072C53.9884 31.2789 56.8074 31.8054 59.4489 31.009C63.1203 29.7789 64.2613 24.5621 61.6109 21.8143C59.0715 18.8276 53.571 19.3408 51.8663 22.9559Z" fill="#F6F6F6"/>
<path d="M45.855 5.50927C52.3233 4.62432 59.1512 5.93405 64.6473 9.50485C70.494 13.1863 74.9202 19.1066 76.6382 25.7969C78.1299 31.4562 77.7437 37.5712 75.5861 43.0048C73.2465 48.7482 68.9669 53.7084 63.5285 56.7394C56.0525 61.0535 46.4854 61.527 38.6231 57.9739C33.5399 55.7748 29.1937 51.9606 26.2814 47.2703C22.8852 41.788 21.4913 35.1066 22.4724 28.7349C23.5156 21.3987 27.742 14.5889 33.8152 10.3234C37.3756 7.80131 41.5354 6.15972 45.855 5.50927ZM49.7839 20.9208C47.9194 23.6332 48.4965 27.0535 48.421 30.1464C48.3456 33.8323 48.5675 37.527 48.3189 41.204C47.6841 45.4119 41.9971 47.0801 38.854 44.4739C35.9151 42.3456 35.9417 37.4075 38.9028 35.3102C40.7718 33.8456 43.2624 34.1774 45.4732 34.142C45.4732 33.2394 45.4732 32.3323 45.4732 31.4296C43.2491 31.4562 40.8873 31.1376 38.814 32.1199C36.2125 33.2748 34.3391 35.8102 33.9129 38.6022C33.3668 41.7172 34.783 45.0402 37.3579 46.881C39.3379 48.3765 41.9838 48.7925 44.3989 48.3633C47.8927 47.7792 50.8272 44.7217 51.1691 41.1907C51.3866 38.8544 51.2223 36.5004 51.2712 34.1553C53.7217 34.1066 56.1812 34.2615 58.6318 34.0889C62.5652 33.6774 65.7482 30.0402 65.8681 26.1376C66.1167 22.881 64.2743 19.642 61.4065 18.1022C57.5619 15.9827 52.1191 17.1022 49.7839 20.9208Z" fill="#628EE7"/>
<path d="M51.8666 22.9563C53.5714 19.3413 59.0719 18.828 61.6112 21.8148C64.2616 24.5625 63.1207 29.7794 59.4492 31.0094C56.8077 31.8059 53.9887 31.2794 51.2762 31.4077C51.4626 28.6068 50.739 25.6201 51.8666 22.9563Z" fill="#628EE7"/>
<path d="M5.17187 77.7703C7.9643 74.8234 13.1363 74.5844 16.1107 77.3853C17.558 78.6641 18.1262 80.58 18.5702 82.3897C17.6068 82.549 16.6434 82.7039 15.6845 82.8632C15.2273 81.2658 14.7078 79.434 13.1318 78.58C11.1873 77.6065 8.55031 78.018 7.13856 79.7216C5.50927 81.5092 5.32282 84.08 5.37165 86.3809C5.48708 88.7127 6.14856 91.3587 8.2795 92.6641C10.0553 93.6818 12.6834 93.6375 14.0819 91.9915C15.0852 90.9119 15.2228 89.372 15.5425 88.0003C16.5413 88.1995 17.5402 88.3986 18.5435 88.6021C18.2594 90.257 17.9043 91.9826 16.7855 93.3057C14.3926 96.4738 9.42932 96.8012 6.2551 94.6552C3.94658 93.1596 2.81452 90.4296 2.53483 87.788C2.12196 84.3101 2.50376 80.3278 5.17187 77.7703Z" fill="#628EE7"/>
<path d="M23.4051 81.3231C25.6604 79.7568 28.9189 79.8143 31.183 81.332C32.5282 82.2346 32.9943 83.9205 33.0121 85.4559C33.0831 88.832 33.021 92.2125 33.0299 95.593C32.2263 95.593 31.4228 95.5975 30.6237 95.6063C30.6326 95.2435 30.6592 94.5178 30.6725 94.155C28.8301 95.9913 26.0155 96.4957 23.6004 95.5709C20.7281 94.6284 20.0844 90.1506 22.5749 88.4559C24.6659 86.9824 27.3962 87.0222 29.5982 85.801C30.3262 85.4426 30.2818 84.4869 30.0288 83.8453C29.1675 82.4559 27.2097 82.4161 25.8113 82.8674C24.6837 83.2568 24.2264 84.4603 23.6804 85.4072C22.8946 85.1107 22.1132 84.8143 21.3319 84.5134C21.8335 83.3497 22.2819 82.0444 23.4051 81.3231ZM24.7636 89.7922C23.4229 90.3718 23.3252 92.5267 24.6437 93.186C26.4417 93.9603 28.9234 93.6417 30.0821 91.9293C30.5349 90.5753 30.304 89.1107 30.3884 87.7081C28.586 88.5975 26.566 88.9161 24.7636 89.7922Z" fill="#628EE7"/>
<path d="M39.9064 81.9515C41.3803 80.748 43.2671 79.8409 45.216 80.2878C47.5378 80.5931 49.4157 82.686 49.4379 85.0267C49.5578 88.5488 49.4246 92.0798 49.4912 95.6019C48.5589 95.5931 47.6266 95.5842 46.6988 95.5798C46.6322 92.0621 46.9163 88.5223 46.5567 85.0179C46.2104 82.5444 42.832 82.1949 41.1539 83.5046C39.9774 84.3674 40.0174 85.9382 39.9952 87.2435C40.0041 90.0267 39.9907 92.8143 40.0174 95.6019C39.094 95.5931 38.175 95.5842 37.256 95.5798C37.2738 90.5842 37.3004 85.5931 37.2383 80.6019C38.1572 80.5975 39.0807 80.5975 40.0041 80.6019C39.9774 80.9382 39.933 81.6152 39.9064 81.9515Z" fill="#628EE7"/>
<path d="M55.791 80.9518C58.0551 79.7836 60.9985 79.9429 63.1028 81.3942C64.5589 82.3898 64.8919 84.2792 64.8963 85.9163C64.9008 89.142 64.8608 92.3677 64.8963 95.5933C64.1061 95.5933 63.3159 95.5933 62.5256 95.5978C62.5256 95.2394 62.5212 94.5225 62.5168 94.1641C60.5679 96.1553 57.3759 96.5668 54.912 95.3323C52.6123 94.111 52.1773 90.5978 53.9708 88.7836C56.0529 87.0579 58.9386 87.0801 61.2826 85.8854C62.1794 85.5402 62.2682 84.3234 61.731 83.6332C60.852 82.4208 59.0629 82.4562 57.7621 82.8279C56.5723 83.1818 56.0618 84.3942 55.5246 85.3898C54.7166 85.111 53.9087 84.8279 53.1007 84.5447C53.7222 83.1818 54.3881 81.6863 55.791 80.9518ZM56.6744 89.7659C55.1606 90.3633 55.1961 93.0004 56.8698 93.35C58.6278 93.819 61.0162 93.6199 61.9707 91.8367C62.3791 90.5048 62.1616 89.0712 62.2193 87.6951C60.4302 88.5402 58.4813 88.965 56.6744 89.7659Z" fill="#628EE7"/>
<path d="M70.4543 81.354C72.7273 79.7655 76.0036 79.7965 78.2988 81.3274C79.7727 82.3186 80.1368 84.2124 80.1235 85.8717C80.1412 89.115 80.1323 92.3584 80.119 95.5973C79.3199 95.5929 78.5253 95.5929 77.7262 95.5929C77.735 95.2434 77.7528 94.5442 77.7572 94.1947C75.9592 95.8894 73.3488 96.4867 71.0004 95.6681C68.0348 94.9646 67.1558 90.6327 69.3755 88.6814C71.5464 86.8894 74.6674 87.1504 76.9448 85.6062C78.1479 84.0929 76.1191 82.3584 74.5608 82.6239C72.6829 82.354 71.3999 83.8584 70.7606 85.4159C69.9882 85.115 69.2157 84.8142 68.4432 84.5088C68.9271 83.3628 69.3622 82.0796 70.4543 81.354ZM71.8261 89.8053C70.3877 90.4469 70.4809 92.8407 71.9992 93.3053C73.7528 93.8938 76.0525 93.5885 77.149 91.9646C77.6906 90.6195 77.4021 89.115 77.4953 87.7035C75.6751 88.5929 73.6418 88.9159 71.8261 89.8053Z" fill="#628EE7"/>
<path d="M86.9732 81.9608C88.4382 80.7749 90.2894 79.8546 92.2295 80.2705C94.6224 80.5404 96.518 82.7086 96.5624 85.0891C96.6867 88.5847 96.5491 92.0891 96.6068 95.5891C95.6789 95.5891 94.7467 95.5935 93.8188 95.5979C93.7433 92.0758 94.0408 88.5316 93.6546 85.0227C93.2728 82.4298 89.5702 82.0714 87.9854 83.7572C87.0486 84.6422 87.133 86.0271 87.093 87.2041C87.1063 90.005 87.1152 92.8015 87.1019 95.6024C86.1741 95.5935 85.2506 95.5847 84.3272 95.5758C84.3539 90.5847 84.3539 85.5935 84.3184 80.6024C85.2418 80.5979 86.1607 80.5979 87.0841 80.6024C87.0575 80.9387 87.0042 81.6201 86.9732 81.9608Z" fill="#628EE7"/>
<rect x="-30.5" y="-5.5" width="160" height="112" rx="15.5" stroke="#191919"/>
</svg>
