<svg width="48" height="48" viewBox="0 0 48 48" fill="none" xmlns="http://www.w3.org/2000/svg">
<path d="M14.7 26.5C12.7141 24.5533 11.3528 22.0594 10.7899 19.3361C10.2269 16.6128 10.4877 13.7836 11.5391 11.2091C12.5904 8.63466 14.3846 6.4316 16.6929 4.88086C19.0013 3.33012 21.7191 2.50195 24.5 2.50195C27.2809 2.50195 29.9987 3.33012 32.3071 4.88086C34.6154 6.4316 36.4096 8.63466 37.4609 11.2091C38.5123 13.7836 38.7731 16.6128 38.2101 19.3361C37.6472 22.0594 36.2859 24.5533 34.3 26.5" stroke="white" stroke-miterlimit="10" stroke-linecap="square"/>
<path d="M24.5 22.5C27.8137 22.5 30.5 19.8137 30.5 16.5C30.5 13.1863 27.8137 10.5 24.5 10.5C21.1863 10.5 18.5 13.1863 18.5 16.5C18.5 19.8137 21.1863 22.5 24.5 22.5Z" stroke="white" stroke-miterlimit="10" stroke-linecap="square"/>
<path d="M24.5 32.5C26.1569 32.5 27.5 31.1569 27.5 29.5C27.5 27.8431 26.1569 26.5 24.5 26.5C22.8431 26.5 21.5 27.8431 21.5 29.5C21.5 31.1569 22.8431 32.5 24.5 32.5Z" stroke="white" stroke-miterlimit="10" stroke-linecap="square"/>
<path d="M24.5 46.5C26.1569 46.5 27.5 45.1569 27.5 43.5C27.5 41.8431 26.1569 40.5 24.5 40.5C22.8431 40.5 21.5 41.8431 21.5 43.5C21.5 45.1569 22.8431 46.5 24.5 46.5Z" stroke="white" stroke-miterlimit="10" stroke-linecap="square"/>
<path d="M13.5 43.5C15.1569 43.5 16.5 42.1569 16.5 40.5C16.5 38.8431 15.1569 37.5 13.5 37.5C11.8431 37.5 10.5 38.8431 10.5 40.5C10.5 42.1569 11.8431 43.5 13.5 43.5Z" stroke="white" stroke-miterlimit="10" stroke-linecap="square"/>
<path d="M24.5 32.5V40.5" stroke="white" stroke-miterlimit="10"/>
<path d="M13.5 37.5V33.5L21.5 29.5" stroke="white" stroke-miterlimit="10"/>
<path d="M35.5 43.5C37.1569 43.5 38.5 42.1569 38.5 40.5C38.5 38.8431 37.1569 37.5 35.5 37.5C33.8431 37.5 32.5 38.8431 32.5 40.5C32.5 42.1569 33.8431 43.5 35.5 43.5Z" stroke="white" stroke-miterlimit="10" stroke-linecap="square"/>
<path d="M35.5 37.5V33.5L27.5 29.5" stroke="white" stroke-miterlimit="10"/>
</svg>
