<svg width="124" height="124" viewBox="0 0 124 124" fill="none" xmlns="http://www.w3.org/2000/svg">
<path d="M20.6666 67.1666V25.8333C20.6666 14.4201 29.9201 5.16663 41.3333 5.16663C52.7465 5.16663 62 14.4201 62 25.8333V98.1666C62 109.58 71.2535 118.833 82.6666 118.833C94.0798 118.833 103.333 109.58 103.333 98.1666V56.8333" stroke="white" stroke-width="4" stroke-miterlimit="10" stroke-linecap="round" stroke-linejoin="round"/>
<path d="M103.333 36.1666C111.894 36.1666 118.833 29.227 118.833 20.6666C118.833 12.1062 111.894 5.16663 103.333 5.16663C94.773 5.16663 87.8334 12.1062 87.8334 20.6666C87.8334 29.227 94.773 36.1666 103.333 36.1666Z" stroke="white" stroke-width="4" stroke-miterlimit="10" stroke-linecap="round" stroke-linejoin="round"/>
<path d="M20.6666 118.833C29.227 118.833 36.1666 111.894 36.1666 103.333C36.1666 94.773 29.227 87.8334 20.6666 87.8334C12.1062 87.8334 5.16663 94.773 5.16663 103.333C5.16663 111.894 12.1062 118.833 20.6666 118.833Z" stroke="white" stroke-width="4" stroke-miterlimit="10" stroke-linecap="round" stroke-linejoin="round"/>
</svg>
