<svg width="24" height="25" viewBox="0 0 24 25" fill="none" xmlns="http://www.w3.org/2000/svg">
<path d="M9.13144 15.7948C8.98905 15.7949 8.84985 15.7527 8.73142 15.6736C8.61298 15.5946 8.52064 15.4822 8.46608 15.3507C8.41152 15.2192 8.39719 15.0744 8.42489 14.9347C8.45258 14.795 8.52105 14.6668 8.62167 14.566L12.645 10.5436H10.2835C10.0925 10.5436 9.90938 10.4678 9.77431 10.3327C9.63934 10.1977 9.56345 10.0146 9.56345 9.82362C9.56345 9.63267 9.63934 9.44953 9.77431 9.31449C9.90938 9.17947 10.0925 9.10362 10.2835 9.10362L14.3855 9.09497H14.3912C14.4292 9.09543 14.4671 9.09832 14.5046 9.10362H14.5421C14.5875 9.11333 14.6318 9.12747 14.6745 9.14585C14.7443 9.17599 14.8091 9.2168 14.8664 9.26682C14.8895 9.28734 14.9112 9.30914 14.9317 9.33209C14.9819 9.38912 15.0224 9.45397 15.0517 9.52409C15.0675 9.56255 15.0806 9.60198 15.0911 9.64217V9.64697C15.0997 9.6897 15.1048 9.73303 15.1064 9.77657V9.80153L15.0998 13.9065C15.0995 14.0973 15.0235 14.2802 14.8885 14.415C14.7535 14.5498 14.5706 14.6255 14.3798 14.6255C14.2852 14.6255 14.1915 14.6069 14.1041 14.5706C14.0167 14.5344 13.9374 14.4812 13.8706 14.4142C13.8038 14.3473 13.7509 14.2678 13.7149 14.1804C13.6789 14.0929 13.6605 13.9991 13.6608 13.9046V11.5391L9.63732 15.5615C9.57297 15.6324 9.495 15.6895 9.40809 15.7295C9.32118 15.7696 9.22709 15.7918 9.13144 15.7948Z" fill="black"/>
<path d="M11.7613 21.8075C9.91015 21.8074 8.10059 21.2584 6.56145 20.2299C5.02231 19.2014 3.82271 17.7396 3.11432 16.0294C2.40593 14.3191 2.22056 12.4372 2.58168 10.6216C2.94278 8.80603 3.83413 7.1383 5.14304 5.82928C6.23144 4.74078 7.57153 3.93752 9.04453 3.49064C10.5175 3.04376 12.078 2.96707 13.5877 3.26734C15.0975 3.56762 16.5099 4.23559 17.6998 5.21212C18.8896 6.18863 19.8203 7.44355 20.4094 8.86568C20.9984 10.2878 21.2277 11.8333 21.0768 13.3652C20.9259 14.897 20.3995 16.3681 19.5442 17.6479C18.689 18.9278 17.5313 19.977 16.1738 20.7025C14.8161 21.428 13.3006 21.8076 11.7613 21.8075ZM11.7613 4.52752C10.7209 4.52473 9.69022 4.72838 8.72898 5.12667C7.76778 5.52496 6.89515 6.10997 6.1616 6.84784C4.86657 8.14342 4.06082 9.84793 3.8816 11.671C3.7024 13.494 4.16084 15.3228 5.17881 16.8458C6.19679 18.3687 7.71132 19.4916 9.46436 20.0231C11.2174 20.5545 13.1005 20.4618 14.7928 19.7606C16.4851 19.0593 17.8819 17.793 18.7452 16.1774C19.6086 14.5617 19.885 12.6967 19.5275 10.9002C19.1699 9.10354 18.2005 7.48647 16.7844 6.32447C15.3683 5.16246 13.5931 4.52742 11.7613 4.52752Z" fill="black"/>
</svg>
