<svg width="80" height="80" viewBox="0 0 80 80" fill="none" xmlns="http://www.w3.org/2000/svg">
<path d="M50.2876 10.9561L70.2126 30.8798" stroke="white" stroke-width="2" stroke-miterlimit="10"/>
<path d="M42.475 15.2914C36.4838 12.6876 29.7455 12.372 23.5371 14.4044C17.3287 16.4369 12.0816 20.6762 8.79004 26.3189L20.275 37.8039" stroke="white" stroke-width="2" stroke-miterlimit="10"/>
<path d="M65.8925 38.625C68.5444 44.626 68.8925 51.3938 66.8703 57.6352C64.848 63.8767 60.5972 69.1544 54.93 72.46L43.3975 60.9275" stroke="white" stroke-width="2" stroke-miterlimit="10"/>
<path d="M34.2298 65.9725L15.2773 47.02C15.2773 47.02 31.4661 6.75 76.8748 4.375C74.3086 49.5862 34.2298 65.9725 34.2298 65.9725Z" stroke="white" stroke-width="2" stroke-miterlimit="10" stroke-linecap="square"/>
<path d="M44.375 44.375C48.5171 44.375 51.875 41.0171 51.875 36.875C51.875 32.7329 48.5171 29.375 44.375 29.375C40.2329 29.375 36.875 32.7329 36.875 36.875C36.875 41.0171 40.2329 44.375 44.375 44.375Z" stroke="white" stroke-width="2" stroke-miterlimit="10" stroke-linecap="square"/>
<path d="M9.07125 61.5714C10.4779 60.1648 12.3857 59.3745 14.375 59.3745C16.3643 59.3745 18.2721 60.1648 19.6787 61.5714C21.0854 62.978 21.8756 64.8859 21.8756 66.8751C21.8756 68.8644 21.0854 70.7723 19.6787 72.1789C15.9287 75.9289 4.375 76.8751 4.375 76.8751C4.375 76.8751 5.32125 65.3214 9.07125 61.5714Z" stroke="white" stroke-width="2" stroke-miterlimit="10" stroke-linecap="square"/>
</svg>
