<svg width="150" height="150" viewBox="0 0 150 150" fill="none" xmlns="http://www.w3.org/2000/svg">
<path d="M14 25.5L41.1492 39.3028C42.785 40.1344 44.7183 40.1409 46.3596 39.3202L75 25" stroke="white" stroke-width="4" stroke-miterlimit="10" stroke-linecap="round" stroke-linejoin="round"/>
<path d="M75 28.5764C75 26.3845 73.7616 24.3808 71.8012 23.4006L46.3379 10.6689C44.7088 9.85438 42.7912 9.85439 41.1621 10.6689L15.6988 23.4006C13.7384 24.3808 12.5 26.3845 12.5 28.5764V62.0486C12.5 64.2405 13.7384 66.2442 15.6988 67.2244L41.1621 79.9561C42.7912 80.7706 44.7088 80.7706 46.3379 79.9561L71.8012 67.2244C73.7616 66.2442 75 64.2405 75 62.0486V28.5764Z" stroke="white" stroke-width="4" stroke-miterlimit="10" stroke-linecap="round" stroke-linejoin="round"/>
<path d="M43.75 40.625V81.25" stroke="white" stroke-width="4" stroke-miterlimit="10" stroke-linecap="round" stroke-linejoin="round"/>
<path d="M75 25L103.684 39.342C105.301 40.1504 107.202 40.1568 108.825 39.3593L136 26" stroke="white" stroke-width="4" stroke-miterlimit="10" stroke-linecap="round" stroke-linejoin="round"/>
<path d="M137.5 28.5764C137.5 26.3845 136.262 24.3808 134.301 23.4006L108.838 10.6689C107.209 9.85438 105.291 9.85439 103.662 10.6689L78.1988 23.4006C76.2384 24.3808 75 26.3845 75 28.5764V62.0486C75 64.2405 76.2384 66.2442 78.1988 67.2244L103.662 79.9561C105.291 80.7706 107.209 80.7706 108.838 79.9561L134.301 67.2244C136.262 66.2442 137.5 64.2405 137.5 62.0486V28.5764Z" stroke="white" stroke-width="4" stroke-miterlimit="10" stroke-linecap="round" stroke-linejoin="round"/>
<path d="M106.25 40.625V81.25" stroke="white" stroke-width="4" stroke-miterlimit="10" stroke-linecap="round" stroke-linejoin="round"/>
<path d="M43.75 81.25L72.4121 95.5811C74.0412 96.3956 75.9588 96.3956 77.5879 95.5811L106.25 81.25" stroke="white" stroke-width="4" stroke-miterlimit="10" stroke-linecap="round" stroke-linejoin="round"/>
<path d="M75 96.875V136.5" stroke="white" stroke-width="4" stroke-miterlimit="10" stroke-linecap="round" stroke-linejoin="round"/>
<path d="M106.25 84.8264C106.25 82.6345 105.012 80.6308 103.051 79.6506L77.5879 66.9189C75.9588 66.1044 74.0412 66.1044 72.4121 66.9189L46.9488 79.6506C44.9884 80.6308 43.75 82.6345 43.75 84.8264V118.299C43.75 120.49 44.9884 122.494 46.9488 123.474L72.4121 136.206C74.0412 137.021 75.9588 137.021 77.5879 136.206L103.051 123.474C105.012 122.494 106.25 120.49 106.25 118.299V84.8264Z" stroke="white" stroke-width="4" stroke-miterlimit="10" stroke-linecap="round" stroke-linejoin="round"/>
</svg>
