<svg width="143" height="47" viewBox="0 0 143 47" fill="none" xmlns="http://www.w3.org/2000/svg">
<rect width="143" height="47" fill="#454545"/>
<rect width="1467" height="2357" transform="translate(-758 -703)" fill="black"/>
<rect x="-8.5" y="-32.5" width="160" height="112" rx="15.5" fill="white"/>
<path d="M9.14453 13.1081C10.4156 13.0994 11.6779 13.0994 12.949 13.1081C12.9579 15.5103 12.9314 17.9212 12.8784 20.3235C15.2441 18.8003 18.3248 17.8516 20.9818 19.2964C26.4281 22.0033 26.3134 30.9681 20.8229 33.5792C18.5719 34.8848 16.0032 34.1275 13.7876 33.2223C12.2782 33.6836 10.7334 34.0057 9.16219 34.1275C9.1357 27.1211 9.15336 20.1146 9.14453 13.1081ZM15.3853 22.2905C12.0222 23.5873 11.8721 28.827 15.0587 30.4023C17.5833 31.7949 21.1583 29.8888 21.1142 26.9731C21.8468 23.8659 18.3601 20.8892 15.3853 22.2905Z" fill="#525252"/>
<path d="M81.9593 13.4389C83.2746 13.4215 84.5986 13.4041 85.9139 13.3867C85.9051 15.2319 85.9139 17.0684 85.9139 18.9136C86.4612 18.9223 87.5557 18.9397 88.1119 18.9484C88.1207 20.0015 88.1295 21.0547 88.1207 22.1078C87.5734 22.1339 86.47 22.1862 85.9139 22.2036C85.9051 26.1376 85.9227 30.0717 85.9051 34.0058C84.5898 33.9449 83.2746 33.8926 81.9593 33.8491C81.9682 29.9586 81.9682 26.068 81.9593 22.1775C81.4915 22.1601 80.547 22.1426 80.0703 22.1339C80.0791 21.3419 80.088 19.7578 80.088 18.9658C80.5646 18.9484 81.5091 18.9223 81.977 18.9136C81.9682 17.0858 81.9593 15.2667 81.9593 13.4389Z" fill="#525252"/>
<path d="M57.7208 18.7655C63.0877 17.3642 68.8077 22.4558 67.4925 27.9044C66.6274 33.9099 58.171 36.4601 53.9605 32.1169C49.3968 28.1568 51.7007 19.7925 57.7208 18.7655ZM58.6124 22.1686C55.8495 22.6908 54.5166 26.1375 55.823 28.4788C56.9882 31.5686 62.0461 31.5251 63.2731 28.4962C65.0915 25.5456 62.1256 21.159 58.6124 22.1686Z" fill="#525252"/>
<path d="M69.5845 25.3459C67.3865 23.0046 69.3285 18.9748 72.4091 18.705C74.8278 18.0609 76.9463 19.4971 78.8265 20.7765C78.0762 21.5859 77.3259 22.3867 76.5756 23.1874C75.0573 22.3171 73.3448 21.5946 71.7295 22.7348C73.592 23.9969 75.5781 25.0848 77.4406 26.3469C79.8769 28.1833 79.2943 32.4743 76.4608 33.6406C73.6449 35.1724 70.423 33.9017 68.1191 32.0826C68.7547 31.2383 69.4079 30.4115 70.0964 29.6108C72.0296 30.3419 74.2982 31.7345 75.9665 29.6369C73.8656 28.1659 71.4117 27.1563 69.5845 25.3459Z" fill="#525252"/>
<path d="M37.1977 13.1423C38.0716 12.1588 40.0842 13.0814 40.0842 14.2738C40.2784 18.0599 40.2342 21.8634 40.1107 25.6582C40.0753 27.634 36.7563 28.0518 36.4827 25.9542C36.3238 21.8373 36.1384 17.6508 36.5974 13.5514L37.1977 13.1423Z" fill="#FD9B25"/>
<path d="M114.85 14.9878C119.687 11.6891 126.44 13.0382 130.386 17.0941C129.459 17.9297 128.55 18.7826 127.623 19.6182C124.71 16.9723 119.908 15.5623 116.615 18.3997C112.52 21.4547 113.588 28.7223 118.549 30.2715C121.815 31.5771 125.187 30.0191 127.649 27.8954C128.506 28.7919 129.362 29.7058 130.209 30.611C126.211 34.7626 119.237 35.8419 114.426 32.4387C108.645 28.435 108.786 18.6695 114.85 14.9878Z" fill="#FD9B25"/>
<path d="M89.5078 13.6472C90.8407 13.6384 92.1824 13.6384 93.5153 13.6559C95.3161 18.4168 96.9315 23.2386 98.7499 27.9996C100.471 23.2038 102.307 18.4429 104.02 13.6472C105.361 13.6384 106.703 13.6384 108.045 13.6472C105.6 20.4099 103.084 27.1379 100.639 33.892C99.3589 33.9355 98.079 33.9616 96.799 33.979C94.4334 27.1814 91.8735 20.4447 89.5078 13.6472Z" fill="#FD9B25"/>
<path d="M31.1426 16.6408C32.4049 15.3265 35.309 16.4406 34.6558 18.425C33.2611 20.3573 31.0367 21.8369 30.613 24.3262C29.4743 28.7563 33.2876 33.6478 37.9572 33.5521C42.8562 34.0221 47.1198 28.9739 45.9016 24.3088C45.5044 21.7412 43.1564 20.2267 41.7087 18.2597C41.6116 16.2056 44.1803 15.3091 45.522 16.7888C51.2156 20.7838 51.6393 29.853 46.3783 34.3702C41.7793 38.8875 33.6142 38.5045 29.4478 33.6217C24.7694 28.8956 25.7404 20.4443 31.1426 16.6408Z" fill="#FD9B25"/>
<rect x="-8.5" y="-32.5" width="160" height="112" rx="15.5" stroke="#191919"/>
</svg>
