<svg width="48" height="48" viewBox="0 0 48 48" fill="none" xmlns="http://www.w3.org/2000/svg">
<path d="M6.5 23.5C8.15685 23.5 9.5 22.1569 9.5 20.5C9.5 18.8431 8.15685 17.5 6.5 17.5C4.84315 17.5 3.5 18.8431 3.5 20.5C3.5 22.1569 4.84315 23.5 6.5 23.5Z" stroke="white" stroke-miterlimit="10"/>
<path d="M8.62012 18.38L16.3801 10.62" stroke="white" stroke-miterlimit="10"/>
<path d="M28.3801 18.38L20.6201 10.62" stroke="white" stroke-miterlimit="10"/>
<path d="M32.6201 18.38L40.3801 10.62" stroke="white" stroke-miterlimit="10"/>
<path d="M18.5 11.5C20.1569 11.5 21.5 10.1569 21.5 8.5C21.5 6.84315 20.1569 5.5 18.5 5.5C16.8431 5.5 15.5 6.84315 15.5 8.5C15.5 10.1569 16.8431 11.5 18.5 11.5Z" stroke="white" stroke-miterlimit="10"/>
<path d="M42.5 11.5C44.1569 11.5 45.5 10.1569 45.5 8.5C45.5 6.84315 44.1569 5.5 42.5 5.5C40.8431 5.5 39.5 6.84315 39.5 8.5C39.5 10.1569 40.8431 11.5 42.5 11.5Z" stroke="white" stroke-miterlimit="10"/>
<path d="M30.5 23.5C32.1569 23.5 33.5 22.1569 33.5 20.5C33.5 18.8431 32.1569 17.5 30.5 17.5C28.8431 17.5 27.5 18.8431 27.5 20.5C27.5 22.1569 28.8431 23.5 30.5 23.5Z" stroke="white" stroke-miterlimit="10"/>
<path d="M9.5 33.5H3.5V43.5H9.5V33.5Z" stroke="white" stroke-miterlimit="10" stroke-linecap="square"/>
<path d="M21.5 21.5H15.5V43.5H21.5V21.5Z" stroke="white" stroke-miterlimit="10" stroke-linecap="square"/>
<path d="M33.5 33.5H27.5V43.5H33.5V33.5Z" stroke="white" stroke-miterlimit="10" stroke-linecap="square"/>
<path d="M45.5 21.5H39.5V43.5H45.5V21.5Z" stroke="white" stroke-miterlimit="10" stroke-linecap="square"/>
</svg>
